<svg width="123" height="28" viewBox="0 0 123 28" fill="none" xmlns="http://www.w3.org/2000/svg">
<path d="M8.08 0.0879989V3.4H4.72V23.68H8.08V27.016H0.88V0.0879989H8.08ZM15.9464 8.44V11.848H21.4424V15.016H15.9464V18.712H22.1624V22H11.8424V5.152H22.1624V8.44H15.9464ZM31.2588 5.152C33.0348 5.152 34.5868 5.504 35.9148 6.208C37.2428 6.912 38.2668 7.904 38.9868 9.184C39.7228 10.448 40.0908 11.912 40.0908 13.576C40.0908 15.224 39.7228 16.688 38.9868 17.968C38.2668 19.248 37.2348 20.24 35.8907 20.944C34.5628 21.648 33.0188 22 31.2588 22H24.9467V5.152H31.2588ZM30.9948 18.448C32.5468 18.448 33.7548 18.024 34.6188 17.176C35.4828 16.328 35.9148 15.128 35.9148 13.576C35.9148 12.024 35.4828 10.816 34.6188 9.952C33.7548 9.088 32.5468 8.656 30.9948 8.656H29.0508V18.448H30.9948ZM46.5363 5.152V15.232C46.5363 16.24 46.7843 17.016 47.2803 17.56C47.7763 18.104 48.5043 18.376 49.4643 18.376C50.4243 18.376 51.1603 18.104 51.6723 17.56C52.1843 17.016 52.4403 16.24 52.4403 15.232V5.152H56.5443V15.208C56.5443 16.712 56.2243 17.984 55.5843 19.024C54.9443 20.064 54.0803 20.848 52.9923 21.376C51.9203 21.904 50.7203 22.168 49.3923 22.168C48.0643 22.168 46.8723 21.912 45.8163 21.4C44.7763 20.872 43.9523 20.088 43.3443 19.048C42.7363 17.992 42.4323 16.712 42.4323 15.208V5.152H46.5363ZM70.5141 5.152V8.44H63.6501V11.992H68.7861V15.184H63.6501V22H59.5461V5.152H70.5141ZM81.3831 22L77.8791 15.64H76.8951V22H72.7911V5.152H79.6791C81.0071 5.152 82.1351 5.384 83.0631 5.848C84.0071 6.312 84.7111 6.952 85.1751 7.768C85.6391 8.568 85.8711 9.464 85.8711 10.456C85.8711 11.576 85.5511 12.576 84.9111 13.456C84.2871 14.336 83.3591 14.96 82.1271 15.328L86.0151 22H81.3831ZM76.8951 12.736H79.4391C80.1911 12.736 80.7511 12.552 81.1191 12.184C81.5031 11.816 81.6951 11.296 81.6951 10.624C81.6951 9.984 81.5031 9.48 81.1191 9.112C80.7511 8.744 80.1911 8.56 79.4391 8.56H76.8951V12.736ZM92.6714 8.44V11.848H98.1674V15.016H92.6714V18.712H98.8874V22H88.5674V5.152H98.8874V8.44H92.6714ZM105.776 8.44V11.848H111.272V15.016H105.776V18.712H111.992V22H101.672V5.152H111.992V8.44H105.776ZM122.648 27.016H115.448V23.68H118.808V3.4H115.448V0.0879989H122.648V27.016Z" fill="white"/>
</svg>
