<svg width="156" height="34" viewBox="0 0 156 34" fill="none" xmlns="http://www.w3.org/2000/svg">
<path d="M45.8 8.152C47.576 8.152 49.128 8.504 50.456 9.208C51.784 9.912 52.808 10.904 53.528 12.184C54.264 13.448 54.632 14.912 54.632 16.576C54.632 18.224 54.264 19.688 53.528 20.968C52.808 22.248 51.776 23.24 50.432 23.944C49.104 24.648 47.56 25 45.8 25H39.488V8.152H45.8ZM45.536 21.448C47.088 21.448 48.296 21.024 49.16 20.176C50.024 19.328 50.456 18.128 50.456 16.576C50.456 15.024 50.024 13.816 49.16 12.952C48.296 12.088 47.088 11.656 45.536 11.656H43.592V21.448H45.536ZM61.1495 8.152V25H57.0455V8.152H61.1495ZM76.3636 8.152V11.44H71.8996V25H67.7956V11.44H63.3316V8.152H76.3636ZM82.6473 21.832H88.0233V25H78.5433V8.152H82.6473V21.832ZM100.589 22.024H94.3008L93.2928 25H88.9968L95.0928 8.152H99.8448L105.941 25H101.597L100.589 22.024ZM99.5328 18.856L97.4448 12.688L95.3808 18.856H99.5328ZM122.988 25H118.884L112.02 14.608V25H107.916V8.152H112.02L118.884 18.592V8.152H122.988V25ZM125.387 16.552C125.387 14.888 125.747 13.408 126.467 12.112C127.187 10.8 128.187 9.784 129.467 9.064C130.763 8.328 132.227 7.96 133.859 7.96C135.859 7.96 137.571 8.488 138.995 9.544C140.419 10.6 141.371 12.04 141.851 13.864H137.339C137.003 13.16 136.523 12.624 135.899 12.256C135.291 11.888 134.595 11.704 133.811 11.704C132.547 11.704 131.523 12.144 130.739 13.024C129.955 13.904 129.563 15.08 129.563 16.552C129.563 18.024 129.955 19.2 130.739 20.08C131.523 20.96 132.547 21.4 133.811 21.4C134.595 21.4 135.291 21.216 135.899 20.848C136.523 20.48 137.003 19.944 137.339 19.24H141.851C141.371 21.064 140.419 22.504 138.995 23.56C137.571 24.6 135.859 25.12 133.859 25.12C132.227 25.12 130.763 24.76 129.467 24.04C128.187 23.304 127.187 22.288 126.467 20.992C125.747 19.696 125.387 18.216 125.387 16.552ZM148.588 11.44V14.848H154.084V18.016H148.588V21.712H154.804V25H144.484V8.152H154.804V11.44H148.588Z" fill="#282938"/>
<path fill-rule="evenodd" clip-rule="evenodd" d="M5.59999 5.80005C4.85738 5.80005 4.14519 6.09505 3.62009 6.62015C3.09499 7.14525 2.79999 7.85744 2.79999 8.60005V24C2.79999 25.114 3.24249 26.1822 4.03014 26.9699C4.81779 27.7576 5.88608 28.2 6.99999 28.2C8.1139 28.2 9.18218 27.7576 9.96984 26.9699C10.7575 26.1822 11.2 25.114 11.2 24V8.60005C11.2 7.85744 10.905 7.14525 10.3799 6.62015C9.85478 6.09505 9.14259 5.80005 8.39999 5.80005H5.59999ZM6.99999 25.4C7.37129 25.4 7.72739 25.2525 7.98994 24.99C8.25249 24.7274 8.39999 24.3714 8.39999 24C8.39999 23.6287 8.25249 23.2726 7.98994 23.0101C7.72739 22.7475 7.37129 22.6 6.99999 22.6C6.62868 22.6 6.27259 22.7475 6.01004 23.0101C5.74749 23.2726 5.59999 23.6287 5.59999 24C5.59999 24.3714 5.74749 24.7274 6.01004 24.99C6.27259 25.2525 6.62868 25.4 6.99999 25.4ZM14 22.9402L20.86 16.0802C21.3849 15.5552 21.6798 14.8431 21.6798 14.1006C21.6798 13.3582 21.3849 12.6461 20.86 12.121L18.879 10.14C18.3539 9.61513 17.6418 9.32025 16.8994 9.32025C16.1569 9.32025 15.4449 9.61513 14.9198 10.14L14 11.0598V22.9402ZM22.4 28.2H12.6994L21.0994 19.8H22.4C23.1426 19.8 23.8548 20.095 24.3799 20.6202C24.905 21.1453 25.2 21.8574 25.2 22.6V25.4C25.2 26.1427 24.905 26.8548 24.3799 27.3799C23.8548 27.905 23.1426 28.2 22.4 28.2Z" fill="#282938"/>
</svg>
