<svg width="157" height="34" viewBox="0 0 157 34" fill="none" xmlns="http://www.w3.org/2000/svg">
<path d="M47.456 25.168C45.872 25.168 44.416 24.8 43.088 24.064C41.776 23.328 40.728 22.304 39.944 20.992C39.176 19.664 38.792 18.176 38.792 16.528C38.792 14.88 39.176 13.4 39.944 12.088C40.728 10.776 41.776 9.752 43.088 9.016C44.416 8.28 45.872 7.912 47.456 7.912C49.04 7.912 50.488 8.28 51.8 9.016C53.128 9.752 54.168 10.776 54.92 12.088C55.688 13.4 56.072 14.88 56.072 16.528C56.072 18.176 55.688 19.664 54.92 20.992C54.152 22.304 53.112 23.328 51.8 24.064C50.488 24.8 49.04 25.168 47.456 25.168ZM47.456 21.424C48.8 21.424 49.872 20.976 50.672 20.08C51.488 19.184 51.896 18 51.896 16.528C51.896 15.04 51.488 13.856 50.672 12.976C49.872 12.08 48.8 11.632 47.456 11.632C46.096 11.632 45.008 12.072 44.192 12.952C43.392 13.832 42.992 15.024 42.992 16.528C42.992 18.016 43.392 19.208 44.192 20.104C45.008 20.984 46.096 21.424 47.456 21.424ZM81.6592 8.152L77.2672 25H72.2992L69.6112 13.912L66.8272 25H61.8592L57.5872 8.152H61.9792L64.4032 20.416L67.4032 8.152H71.9152L74.7952 20.416L77.2432 8.152H81.6592ZM95.9574 8.152V11.44H91.4934V25H87.3894V11.44H82.9254V8.152H95.9574ZM112.729 8.152V25H108.625V18.064H102.241V25H98.1371V8.152H102.241V14.752H108.625V8.152H112.729ZM119.916 11.44V14.848H125.412V18.016H119.916V21.712H126.132V25H115.812V8.152H126.132V11.44H119.916ZM135.012 25.168C133.78 25.168 132.676 24.968 131.7 24.568C130.724 24.168 129.94 23.576 129.348 22.792C128.772 22.008 128.468 21.064 128.436 19.96H132.804C132.868 20.584 133.084 21.064 133.452 21.4C133.82 21.72 134.3 21.88 134.892 21.88C135.5 21.88 135.98 21.744 136.332 21.472C136.684 21.184 136.86 20.792 136.86 20.296C136.86 19.88 136.716 19.536 136.428 19.264C136.156 18.992 135.812 18.768 135.396 18.592C134.996 18.416 134.42 18.216 133.668 17.992C132.58 17.656 131.692 17.32 131.004 16.984C130.316 16.648 129.724 16.152 129.228 15.496C128.732 14.84 128.484 13.984 128.484 12.928C128.484 11.36 129.052 10.136 130.188 9.256C131.324 8.36 132.804 7.912 134.628 7.912C136.484 7.912 137.98 8.36 139.116 9.256C140.252 10.136 140.86 11.368 140.94 12.952H136.5C136.468 12.408 136.268 11.984 135.9 11.68C135.532 11.36 135.06 11.2 134.484 11.2C133.988 11.2 133.588 11.336 133.284 11.608C132.98 11.864 132.828 12.24 132.828 12.736C132.828 13.28 133.084 13.704 133.596 14.008C134.108 14.312 134.908 14.64 135.996 14.992C137.084 15.36 137.964 15.712 138.636 16.048C139.324 16.384 139.916 16.872 140.412 17.512C140.908 18.152 141.156 18.976 141.156 19.984C141.156 20.944 140.908 21.816 140.412 22.6C139.932 23.384 139.228 24.008 138.3 24.472C137.372 24.936 136.276 25.168 135.012 25.168ZM155.922 8.152V11.44H151.458V25H147.354V11.44H142.89V8.152H155.922Z" fill="#282938"/>
<path d="M15.4 26.8C15.4001 27.0386 15.4612 27.2731 15.5775 27.4815C15.6937 27.6898 15.8612 27.8649 16.0642 27.9903C16.2671 28.1157 16.4987 28.1871 16.737 28.1979C16.9753 28.2086 17.2124 28.1583 17.4258 28.0516L23.0258 25.2516C23.2583 25.1354 23.4539 24.9568 23.5906 24.7358C23.7274 24.5147 23.7999 24.26 23.8 24V15.9304C23.7999 15.6919 23.7388 15.4573 23.6226 15.249C23.5063 15.0407 23.3388 14.8655 23.1359 14.7402C22.9329 14.6148 22.7013 14.5433 22.463 14.5326C22.2247 14.5219 21.9876 14.5722 21.7742 14.6788L16.1742 17.4788C15.9417 17.595 15.7461 17.7736 15.6094 17.9947C15.4726 18.2158 15.4002 18.4705 15.4 18.7304V26.8ZM21.2954 11.7864C21.5276 11.67 21.7229 11.4913 21.8594 11.2703C21.9958 11.0493 22.0681 10.7946 22.0681 10.5348C22.0681 10.2751 21.9958 10.0204 21.8594 9.79938C21.7229 9.57834 21.5276 9.39963 21.2954 9.28323L14.6258 5.94843C14.4315 5.85133 14.2172 5.80078 14 5.80078C13.7828 5.80078 13.5685 5.85133 13.3742 5.94843L6.70461 9.28323C6.47238 9.39963 6.27711 9.57834 6.14064 9.79938C6.00418 10.0204 5.93191 10.2751 5.93191 10.5348C5.93191 10.7946 6.00418 11.0493 6.14064 11.2703C6.27711 11.4913 6.47238 11.67 6.70461 11.7864L13.3742 15.1212C13.5685 15.2183 13.7828 15.2689 14 15.2689C14.2172 15.2689 14.4315 15.2183 14.6258 15.1212L21.2954 11.7864ZM6.22581 14.6788C6.01242 14.5722 5.77533 14.5219 5.53702 14.5326C5.29871 14.5433 5.0671 14.6148 4.86416 14.7402C4.66122 14.8655 4.49369 15.0407 4.37745 15.249C4.26122 15.4573 4.20014 15.6919 4.20001 15.9304V24C4.20015 24.26 4.27265 24.5147 4.40939 24.7358C4.54612 24.9568 4.7417 25.1354 4.97421 25.2516L10.5742 28.0516C10.7876 28.1583 11.0247 28.2086 11.263 28.1979C11.5013 28.1871 11.7329 28.1157 11.9359 27.9903C12.1388 27.8649 12.3063 27.6898 12.4226 27.4815C12.5388 27.2731 12.5999 27.0386 12.6 26.8V18.7304C12.5999 18.4705 12.5274 18.2158 12.3906 17.9947C12.2539 17.7736 12.0583 17.595 11.8258 17.4788L6.22581 14.6788Z" fill="black"/>
</svg>
