<svg width="146" height="34" viewBox="0 0 146 34" fill="none" xmlns="http://www.w3.org/2000/svg">
<path d="M54.56 25H50.456L43.592 14.608V25H39.488V8.152H43.592L50.456 18.592V8.152H54.56V25ZM61.7589 11.44V14.848H67.2549V18.016H61.7589V21.712H67.9749V25H57.6549V8.152H67.9749V11.44H61.7589ZM78.7273 25.168C77.1433 25.168 75.6873 24.8 74.3593 24.064C73.0473 23.328 71.9992 22.304 71.2152 20.992C70.4472 19.664 70.0632 18.176 70.0632 16.528C70.0632 14.88 70.4472 13.4 71.2152 12.088C71.9992 10.776 73.0473 9.752 74.3593 9.016C75.6873 8.28 77.1433 7.912 78.7273 7.912C80.3113 7.912 81.7593 8.28 83.0713 9.016C84.3993 9.752 85.4393 10.776 86.1913 12.088C86.9593 13.4 87.3433 14.88 87.3433 16.528C87.3433 18.176 86.9593 19.664 86.1913 20.992C85.4233 22.304 84.3833 23.328 83.0713 24.064C81.7593 24.8 80.3113 25.168 78.7273 25.168ZM78.7273 21.424C80.0713 21.424 81.1432 20.976 81.9432 20.08C82.7593 19.184 83.1673 18 83.1673 16.528C83.1673 15.04 82.7593 13.856 81.9432 12.976C81.1432 12.08 80.0713 11.632 78.7273 11.632C77.3673 11.632 76.2793 12.072 75.4633 12.952C74.6632 13.832 74.2632 15.024 74.2632 16.528C74.2632 18.016 74.6632 19.208 75.4633 20.104C76.2793 20.984 77.3673 21.424 78.7273 21.424ZM105.562 8.152L99.5864 25H94.4504L88.4744 8.152H92.8424L97.0184 20.872L101.218 8.152H105.562ZM117.886 22.024H111.598L110.59 25H106.294L112.39 8.152H117.142L123.238 25H118.894L117.886 22.024ZM116.83 18.856L114.742 12.688L112.678 18.856H116.83ZM131.309 25.168C130.077 25.168 128.973 24.968 127.997 24.568C127.021 24.168 126.237 23.576 125.645 22.792C125.069 22.008 124.765 21.064 124.733 19.96H129.101C129.165 20.584 129.381 21.064 129.749 21.4C130.117 21.72 130.597 21.88 131.189 21.88C131.797 21.88 132.277 21.744 132.629 21.472C132.981 21.184 133.157 20.792 133.157 20.296C133.157 19.88 133.013 19.536 132.725 19.264C132.453 18.992 132.109 18.768 131.693 18.592C131.293 18.416 130.717 18.216 129.965 17.992C128.877 17.656 127.989 17.32 127.301 16.984C126.613 16.648 126.021 16.152 125.525 15.496C125.029 14.84 124.781 13.984 124.781 12.928C124.781 11.36 125.349 10.136 126.485 9.256C127.621 8.36 129.101 7.912 130.925 7.912C132.781 7.912 134.277 8.36 135.413 9.256C136.549 10.136 137.157 11.368 137.237 12.952H132.797C132.765 12.408 132.565 11.984 132.197 11.68C131.829 11.36 131.357 11.2 130.781 11.2C130.285 11.2 129.885 11.336 129.581 11.608C129.277 11.864 129.125 12.24 129.125 12.736C129.125 13.28 129.381 13.704 129.893 14.008C130.405 14.312 131.205 14.64 132.293 14.992C133.381 15.36 134.261 15.712 134.933 16.048C135.621 16.384 136.213 16.872 136.709 17.512C137.205 18.152 137.453 18.976 137.453 19.984C137.453 20.944 137.205 21.816 136.709 22.6C136.229 23.384 135.525 24.008 134.597 24.472C133.669 24.936 132.573 25.168 131.309 25.168ZM144.203 8.152V25H140.099V8.152H144.203Z" fill="#282938"/>
<path fill-rule="evenodd" clip-rule="evenodd" d="M14 28.2C16.9704 28.2 19.8192 27.0201 21.9196 24.9196C24.02 22.8192 25.2 19.9705 25.2 17C25.2 14.0296 24.02 11.1809 21.9196 9.08045C19.8192 6.98005 16.9704 5.80005 14 5.80005C11.0296 5.80005 8.1808 6.98005 6.08039 9.08045C3.97998 11.1809 2.79999 14.0296 2.79999 17C2.79999 19.9705 3.97998 22.8192 6.08039 24.9196C8.1808 27.0201 11.0296 28.2 14 28.2ZM6.06479 14.2378C6.58459 12.7493 7.51209 11.4366 8.74159 10.4494C9.11679 11.022 9.76359 11.4 10.5 11.4C11.0569 11.4 11.5911 11.6213 11.9849 12.0151C12.3787 12.409 12.6 12.9431 12.6 13.5V14.2C12.6 14.9427 12.895 15.6548 13.4201 16.1799C13.9452 16.705 14.6574 17 15.4 17C16.1426 17 16.8548 16.705 17.3799 16.1799C17.905 15.6548 18.2 14.9427 18.2 14.2C18.1998 13.5734 18.4097 12.9649 18.7963 12.4717C19.1829 11.9785 19.7237 11.6293 20.3322 11.4798C21.6682 13.0082 22.4031 14.9701 22.4 17C22.4 17.476 22.3608 17.945 22.2838 18.4H21C20.2574 18.4 19.5452 18.695 19.0201 19.2201C18.495 19.7453 18.2 20.4574 18.2 21.2V24.2758C16.9236 25.0144 15.4746 25.4022 14 25.4V22.6C14 21.8574 13.705 21.1453 13.1799 20.6202C12.6548 20.095 11.9426 19.8 11.2 19.8C10.4574 19.8 9.74519 19.505 9.22009 18.9799C8.69499 18.4548 8.39999 17.7427 8.39999 17C8.40024 16.3378 8.16578 15.697 7.73825 15.1913C7.31072 14.6856 6.7178 14.3478 6.06479 14.2378Z" fill="black"/>
</svg>
