<svg width="127" height="34" viewBox="0 0 127 34" fill="none" xmlns="http://www.w3.org/2000/svg">
<path d="M43.456 25.168C41.872 25.168 40.416 24.8 39.088 24.064C37.776 23.328 36.728 22.304 35.944 20.992C35.176 19.664 34.792 18.176 34.792 16.528C34.792 14.88 35.176 13.4 35.944 12.088C36.728 10.776 37.776 9.752 39.088 9.016C40.416 8.28 41.872 7.912 43.456 7.912C45.04 7.912 46.488 8.28 47.8 9.016C49.128 9.752 50.168 10.776 50.92 12.088C51.688 13.4 52.072 14.88 52.072 16.528C52.072 18.176 51.688 19.664 50.92 20.992C50.152 22.304 49.112 23.328 47.8 24.064C46.488 24.8 45.04 25.168 43.456 25.168ZM43.456 21.424C44.8 21.424 45.872 20.976 46.672 20.08C47.488 19.184 47.896 18 47.896 16.528C47.896 15.04 47.488 13.856 46.672 12.976C45.872 12.08 44.8 11.632 43.456 11.632C42.096 11.632 41.008 12.072 40.192 12.952C39.392 13.832 38.992 15.024 38.992 16.528C38.992 18.016 39.392 19.208 40.192 20.104C41.008 20.984 42.096 21.424 43.456 21.424ZM69.5472 25H65.4432L58.5792 14.608V25H54.4752V8.152H58.5792L65.4432 18.592V8.152H69.5472V25ZM83.1301 22.024H76.8421L75.8341 25H71.5381L77.6341 8.152H82.3861L88.4821 25H84.1381L83.1301 22.024ZM82.0741 18.856L79.9861 12.688L77.9221 18.856H82.0741ZM101.641 13.48C101.337 12.92 100.897 12.496 100.321 12.208C99.7614 11.904 99.0974 11.752 98.3294 11.752C97.0014 11.752 95.9374 12.192 95.1374 13.072C94.3374 13.936 93.9374 15.096 93.9374 16.552C93.9374 18.104 94.3534 19.32 95.1854 20.2C96.0334 21.064 97.1934 21.496 98.6654 21.496C99.6734 21.496 100.521 21.24 101.209 20.728C101.913 20.216 102.425 19.48 102.745 18.52H97.5374V15.496H106.465V19.312C106.161 20.336 105.641 21.288 104.905 22.168C104.185 23.048 103.265 23.76 102.145 24.304C101.025 24.848 99.7614 25.12 98.3534 25.12C96.6894 25.12 95.2014 24.76 93.8894 24.04C92.5934 23.304 91.5774 22.288 90.8414 20.992C90.1214 19.696 89.7614 18.216 89.7614 16.552C89.7614 14.888 90.1214 13.408 90.8414 12.112C91.5774 10.8 92.5934 9.784 93.8894 9.064C95.1854 8.328 96.6654 7.96 98.3294 7.96C100.345 7.96 102.041 8.448 103.417 9.424C104.809 10.4 105.729 11.752 106.177 13.48H101.641ZM116.827 25.168C115.243 25.168 113.787 24.8 112.459 24.064C111.147 23.328 110.099 22.304 109.315 20.992C108.547 19.664 108.163 18.176 108.163 16.528C108.163 14.88 108.547 13.4 109.315 12.088C110.099 10.776 111.147 9.752 112.459 9.016C113.787 8.28 115.243 7.912 116.827 7.912C118.411 7.912 119.859 8.28 121.171 9.016C122.499 9.752 123.539 10.776 124.291 12.088C125.059 13.4 125.443 14.88 125.443 16.528C125.443 18.176 125.059 19.664 124.291 20.992C123.523 22.304 122.483 23.328 121.171 24.064C119.859 24.8 118.411 25.168 116.827 25.168ZM116.827 21.424C118.171 21.424 119.243 20.976 120.043 20.08C120.859 19.184 121.267 18 121.267 16.528C121.267 15.04 120.859 13.856 120.043 12.976C119.243 12.08 118.171 11.632 116.827 11.632C115.467 11.632 114.379 12.072 113.563 12.952C112.763 13.832 112.363 15.024 112.363 16.528C112.363 18.016 112.763 19.208 113.563 20.104C114.379 20.984 115.467 21.424 116.827 21.424Z" fill="#282938"/>
<path fill-rule="evenodd" clip-rule="evenodd" d="M15.82 4.46436C16.1042 4.55374 16.3525 4.73146 16.5287 4.97166C16.705 5.21186 16.8 5.50203 16.8 5.79996V12.8H22.4C22.6561 12.7998 22.9073 12.87 23.1263 13.0027C23.3453 13.1355 23.5237 13.3257 23.6421 13.5528C23.7604 13.7799 23.8143 14.0351 23.7977 14.2906C23.7811 14.5462 23.6947 14.7923 23.548 15.0022L13.748 29.0022C13.5774 29.2465 13.3334 29.4301 13.0513 29.5261C12.7692 29.6222 12.4638 29.6257 12.1796 29.5362C11.8953 29.4467 11.6471 29.2689 11.4709 29.0286C11.2947 28.7882 11.1998 28.498 11.2 28.2V21.2H5.59999C5.34391 21.2001 5.0927 21.1299 4.8737 20.9972C4.6547 20.8645 4.47631 20.6742 4.35793 20.4471C4.23955 20.22 4.18573 19.9648 4.20231 19.7093C4.2189 19.4537 4.30526 19.2076 4.45199 18.9978L14.252 4.99776C14.4228 4.75386 14.6669 4.57078 14.9489 4.47511C15.2309 4.37944 15.536 4.37616 15.82 4.46576V4.46436Z" fill="black"/>
</svg>
