<svg width="120" height="34" viewBox="0 0 120 34" fill="none" xmlns="http://www.w3.org/2000/svg">
<path d="M43.592 21.832H48.968V25H39.488V8.152H43.592V21.832ZM59.0135 25.168C57.4295 25.168 55.9735 24.8 54.6455 24.064C53.3335 23.328 52.2855 22.304 51.5015 20.992C50.7335 19.664 50.3495 18.176 50.3495 16.528C50.3495 14.88 50.7335 13.4 51.5015 12.088C52.2855 10.776 53.3335 9.752 54.6455 9.016C55.9735 8.28 57.4295 7.912 59.0135 7.912C60.5975 7.912 62.0455 8.28 63.3575 9.016C64.6855 9.752 65.7255 10.776 66.4775 12.088C67.2455 13.4 67.6295 14.88 67.6295 16.528C67.6295 18.176 67.2455 19.664 66.4775 20.992C65.7095 22.304 64.6695 23.328 63.3575 24.064C62.0455 24.8 60.5975 25.168 59.0135 25.168ZM59.0135 21.424C60.3575 21.424 61.4295 20.976 62.2295 20.08C63.0455 19.184 63.4535 18 63.4535 16.528C63.4535 15.04 63.0455 13.856 62.2295 12.976C61.4295 12.08 60.3575 11.632 59.0135 11.632C57.6535 11.632 56.5655 12.072 55.7495 12.952C54.9495 13.832 54.5495 15.024 54.5495 16.528C54.5495 18.016 54.9495 19.208 55.7495 20.104C56.5655 20.984 57.6535 21.424 59.0135 21.424ZM78.6247 25L75.1207 18.64H74.1367V25H70.0327V8.152H76.9207C78.2487 8.152 79.3767 8.384 80.3047 8.848C81.2487 9.312 81.9527 9.952 82.4167 10.768C82.8807 11.568 83.1127 12.464 83.1127 13.456C83.1127 14.576 82.7927 15.576 82.1527 16.456C81.5287 17.336 80.6007 17.96 79.3687 18.328L83.2567 25H78.6247ZM74.1367 15.736H76.6807C77.4327 15.736 77.9927 15.552 78.3607 15.184C78.7447 14.816 78.9367 14.296 78.9367 13.624C78.9367 12.984 78.7447 12.48 78.3607 12.112C77.9927 11.744 77.4327 11.56 76.6807 11.56H74.1367V15.736ZM89.9129 11.44V14.848H95.4089V18.016H89.9129V21.712H96.1289V25H85.8089V8.152H96.1289V11.44H89.9129ZM117.993 8.152V25H113.889V14.896L110.121 25H106.809L103.017 14.872V25H98.9133V8.152H103.761L108.489 19.816L113.169 8.152H117.993Z" fill="#282938"/>
<path d="M11.8 23C11.8 23.7956 11.5471 24.5587 11.0971 25.1213C10.647 25.6839 10.0365 26 9.4 26C8.76348 26 8.15303 25.6839 7.70294 25.1213C7.25286 24.5587 7 23.7956 7 23C7 22.2044 7.25286 21.4413 7.70294 20.8787C8.15303 20.3161 8.76348 20 9.4 20C10.0365 20 10.647 20.3161 11.0971 20.8787C11.5471 21.4413 11.8 22.2044 11.8 23ZM23 23C23 23.7956 22.7471 24.5587 22.2971 25.1213C21.847 25.6839 21.2365 26 20.6 26C19.9635 26 19.353 25.6839 18.9029 25.1213C18.4529 24.5587 18.2 23.7956 18.2 23C18.2 22.2044 18.4529 21.4413 18.9029 20.8787C19.353 20.3161 19.9635 20 20.6 20C21.2365 20 21.847 20.3161 22.2971 20.8787C22.7471 21.4413 23 22.2044 23 23Z" fill="black"/>
<path d="M4.39921 7C4.0279 7 3.67181 7.1475 3.40926 7.41005C3.14671 7.6726 2.99921 8.0287 2.99921 8.4V22.4C2.99921 22.7713 3.14671 23.1274 3.40926 23.3899C3.67181 23.6525 4.0279 23.8 4.39921 23.8H5.86921C6.02987 23.0088 6.45912 22.2975 7.08423 21.7865C7.70933 21.2756 8.49186 20.9965 9.29921 20.9965C10.1066 20.9965 10.8891 21.2756 11.5142 21.7865C12.1393 22.2975 12.5685 23.0088 12.7292 23.8H14.1992C14.5705 23.8 14.9266 23.6525 15.1892 23.3899C15.4517 23.1274 15.5992 22.7713 15.5992 22.4V8.4C15.5992 8.0287 15.4517 7.6726 15.1892 7.41005C14.9266 7.1475 14.5705 7 14.1992 7H4.39921ZM19.7992 11.2C19.4279 11.2 19.0718 11.3475 18.8093 11.6101C18.5467 11.8726 18.3992 12.2287 18.3992 12.6V21.07C18.8496 20.978 19.3138 20.9756 19.7652 21.063C20.2165 21.1504 20.6462 21.3259 21.0298 21.5794C21.4133 21.8329 21.7431 22.1595 22.0004 22.5405C22.2577 22.9216 22.4374 23.3495 22.5292 23.8H23.9992C24.3705 23.8 24.7266 23.6525 24.9892 23.3899C25.2517 23.1274 25.3992 22.7713 25.3992 22.4L25.1984 15.4C25.1983 15.0288 25.1984 11.4 25.1984 11.4H22.1984C22.1984 11.4 21.5705 11.2001 21.1992 11.2H19.7992Z" fill="black"/>
</svg>
